<svg width="201" height="60" viewBox="0 0 201 60" fill="none" xmlns="http://www.w3.org/2000/svg">
<rect width="201" height="60" fill="#1275B1"/>
<path d="M92.26 35H98.008V33.956H93.46V26.6H92.26V35ZM99.385 35H100.585V26.6H99.385V35ZM109.124 26.6V32.864L104.084 26.6H103.1V35H104.3V28.736L109.34 35H110.324V26.6H109.124ZM118.79 35H120.194L116.378 30.38L119.966 26.6H118.598L114.038 31.292V26.6H112.838V35H114.038V32.828L115.574 31.268L118.79 35ZM122.663 33.956V31.244H126.875V30.224H122.663V27.644H127.391V26.6H121.463V35H127.559V33.956H122.663ZM129.502 35H133.042C135.742 35 137.578 33.296 137.578 30.8C137.578 28.304 135.742 26.6 133.042 26.6H129.502V35ZM130.702 33.956V27.644H132.97C135.046 27.644 136.378 28.916 136.378 30.8C136.378 32.684 135.046 33.956 132.97 33.956H130.702ZM139.416 35H140.616V26.6H139.416V35ZM149.155 26.6V32.864L144.115 26.6H143.131V35H144.331V28.736L149.371 35H150.355V26.6H149.155Z" fill="white"/>
<rect x="34" y="16" width="28" height="28" rx="14" fill="#1275B1"/>
<path d="M44.6186 23.6921C44.6186 24.6267 43.8085 25.3843 42.8093 25.3843C41.81 25.3843 41 24.6267 41 23.6921C41 22.7576 41.81 22 42.8093 22C43.8085 22 44.6186 22.7576 44.6186 23.6921Z" fill="white"/>
<path d="M41.2474 26.6281H44.3402V36H41.2474V26.6281Z" fill="white"/>
<path d="M49.3196 26.6281H46.2268V36H49.3196C49.3196 36 49.3196 33.0496 49.3196 31.2049C49.3196 30.0976 49.6977 28.9855 51.2062 28.9855C52.911 28.9855 52.9008 30.4345 52.8928 31.5571C52.8824 33.0244 52.9072 34.5219 52.9072 36H56V31.0537C55.9738 27.8954 55.1508 26.4401 52.4433 26.4401C50.8354 26.4401 49.8387 27.1701 49.3196 27.8305V26.6281Z" fill="white"/>
</svg>
