<svg width="201" height="60" viewBox="0 0 201 60" fill="none" xmlns="http://www.w3.org/2000/svg">
<rect width="201" height="60" fill="black"/>
<path d="M95.2 35L95.188 26.6H94.204L90.748 32.504L87.244 26.6H86.26V35H87.412V28.916L90.448 33.98H91L94.036 28.88L94.048 35H95.2ZM98.9209 33.956V31.244H103.133V30.224H98.9209V27.644H103.649V26.6H97.7209V35H103.817V33.956H98.9209ZM105.76 35H109.3C112 35 113.836 33.296 113.836 30.8C113.836 28.304 112 26.6 109.3 26.6H105.76V35ZM106.96 33.956V27.644H109.228C111.304 27.644 112.636 28.916 112.636 30.8C112.636 32.684 111.304 33.956 109.228 33.956H106.96ZM115.674 35H116.874V26.6H115.674V35ZM122.869 35.096C125.089 35.096 126.421 33.812 126.421 31.376V26.6H125.257V31.328C125.257 33.188 124.393 34.028 122.881 34.028C121.369 34.028 120.517 33.188 120.517 31.328V26.6H119.317V31.376C119.317 33.812 120.661 35.096 122.869 35.096ZM137.821 35L137.809 26.6H136.825L133.369 32.504L129.865 26.6H128.881V35H130.033V28.916L133.069 33.98H133.621L136.657 28.88L136.669 35H137.821Z" fill="white"/>
<ellipse cx="46.9363" cy="30.6988" rx="4.93634" ry="4.69876" fill="white"/>
<ellipse cx="54.539" cy="30.6988" rx="2.45497" ry="4.38199" fill="white"/>
<ellipse cx="58.1023" cy="30.9363" rx="0.897516" ry="4.14441" fill="white"/>
</svg>
