<svg width="201" height="60" viewBox="0 0 201 60" fill="none" xmlns="http://www.w3.org/2000/svg">
<rect width="201" height="60" fill="#47ACDF"/>
<path d="M91.928 35H93.116V27.644H95.996V26.6H89.048V27.644H91.928V35ZM107.937 26.6L105.621 33.464L103.305 26.6H102.201L99.8372 33.428L97.5692 26.6H96.3332L99.1412 35H100.425L102.717 28.292L105.009 35H106.269L109.077 26.6H107.937ZM110.545 35H111.745V26.6H110.545V35ZM115.928 35H117.116V27.644H119.996V26.6H113.048V27.644H115.928V35ZM123.088 35H124.276V27.644H127.156V26.6H120.208V27.644H123.088V35ZM129.663 33.956V31.244H133.875V30.224H129.663V27.644H134.391V26.6H128.463V35H134.559V33.956H129.663ZM143.426 35L141.434 32.18C142.61 31.76 143.282 30.824 143.282 29.528C143.282 27.704 141.962 26.6 139.778 26.6H136.502V35H137.702V32.444H139.778C139.958 32.444 140.138 32.432 140.306 32.42L142.118 35H143.426ZM139.742 31.424H137.702V27.644H139.742C141.278 27.644 142.082 28.328 142.082 29.528C142.082 30.728 141.278 31.424 139.742 31.424Z" fill="white"/>
<path d="M46.6499 38C44.5703 38 42.6317 37.3864 41 36.3276C42.3854 36.4185 44.8302 36.2007 46.3509 34.7292C44.0633 34.6227 43.0316 32.8428 42.897 32.0822C43.0914 32.1582 44.0184 32.2495 44.5417 32.0365C41.9102 31.3671 41.5065 29.0243 41.5962 28.3093C42.0896 28.6592 42.9269 28.7809 43.2559 28.7505C40.8038 26.9706 41.6859 24.2931 42.1195 23.715C43.8792 26.1883 46.5165 27.5773 49.7791 27.6546C49.7176 27.3809 49.6851 27.0959 49.6851 26.8032C49.6851 24.7028 51.3586 23 53.423 23C54.5016 23 55.4735 23.4648 56.1558 24.2084C56.8766 24.037 57.9613 23.6359 58.4916 23.289C58.2243 24.2627 57.3922 25.0749 56.8888 25.3759C56.8847 25.3656 56.893 25.3862 56.8888 25.3759C57.331 25.3081 58.5274 25.0748 59 24.7495C58.7663 25.2965 57.884 26.2059 57.16 26.7151C57.2947 32.7422 52.7492 38 46.6499 38Z" fill="white"/>
</svg>
